<svg width="138" height="32" viewBox="0 0 138 32" fill="none" xmlns="http://www.w3.org/2000/svg">
<g clip-path="url(#clip0_107_469)">
<path d="M53.5686 10.5283C53.5686 10.2467 53.8076 10.0071 54.0927 10.0071H58.4144C60.8142 10.0071 62.7581 11.9601 62.7581 14.3466C62.7581 16.733 60.8142 18.6661 58.4144 18.6661L54.639 18.71V24.6791C54.639 24.9606 54.398 25.2003 54.0947 25.2003C53.8096 25.2003 53.5706 24.9606 53.5706 24.6791V10.5283H53.5686ZM58.4124 17.6456C60.2238 17.6237 61.7078 16.1479 61.7078 14.3466C61.7078 12.5453 60.2238 11.0695 58.4124 11.0695H54.637V17.6456H58.4124Z" fill="white"/>
<path d="M112.71 9.78931C114.588 9.78931 116.311 10.4403 117.642 11.4608C117.883 11.6565 117.927 12.026 117.731 12.2217C117.556 12.4813 117.206 12.5032 116.99 12.3295C115.811 11.4169 114.327 10.8537 112.712 10.8537C108.892 10.8537 105.838 13.8272 105.838 17.5377C105.838 21.2481 108.892 24.1358 112.712 24.1358C114.327 24.1358 115.813 23.6146 116.945 22.66C117.208 22.4863 117.556 22.5302 117.708 22.7898C117.927 22.9855 117.883 23.3749 117.642 23.5507C116.311 24.5691 114.588 25.2002 112.71 25.2002C108.324 25.2002 104.766 21.7713 104.766 17.5397C104.766 13.308 108.322 9.81327 112.71 9.7913V9.78931Z" fill="white"/>
<path d="M130.527 11.0695H125.922C125.637 11.0695 125.398 10.8318 125.398 10.5283C125.398 10.2467 125.637 10.0071 125.922 10.0071H136.18C136.463 10.0071 136.704 10.2467 136.704 10.5283C136.704 10.8318 136.463 11.0695 136.18 11.0695H131.575V24.6771C131.575 24.9587 131.334 25.1983 131.051 25.1983C130.768 25.1983 130.527 24.9587 130.527 24.6771V11.0695Z" fill="white"/>
<path d="M34.7478 24.3536L39.6579 17.6476L34.7478 10.9417C34.551 10.702 34.5952 10.3566 34.8362 10.2028C35.0751 10.0071 35.4246 10.051 35.5772 10.2887L40.3125 16.757L45.0478 10.2887C45.2446 10.051 45.5499 10.0071 45.7909 10.2028C46.0299 10.3546 46.0961 10.702 45.8993 10.9417L40.9672 17.6476L45.8993 24.3536C46.0961 24.5912 46.0299 24.9167 45.7909 25.0905C45.6804 25.1544 45.5941 25.1983 45.4836 25.1983C45.3089 25.1983 45.1563 25.1124 45.0478 24.9587L40.3125 18.5123L35.5772 24.9587C35.4888 25.1104 35.3141 25.1983 35.1615 25.1983C35.051 25.1983 34.9426 25.1544 34.8342 25.0905C34.5932 24.9167 34.549 24.5912 34.7458 24.3536H34.7478Z" fill="white"/>
<path d="M83.6334 0C74.7612 0 67.5437 7.17723 67.5437 16C67.5437 24.8228 74.7612 32 83.6334 32C85.0451 32 86.4468 31.8183 87.7984 31.4588C88.0554 31.3909 88.21 31.1273 88.1418 30.8697C88.0735 30.6141 87.8084 30.4663 87.5514 30.5302C86.2802 30.8677 84.9628 31.0394 83.6354 31.0394C75.2953 31.0394 68.5096 24.2916 68.5096 16C68.5096 7.70844 75.2933 0.960559 83.6334 0.960559C91.9734 0.960559 98.7611 7.70844 98.7611 16C98.7611 18.4623 98.0482 21.0245 96.6445 23.6166C95.789 25.1942 94.8351 25.8093 93.2426 25.8093C92.5578 25.8093 91.4051 25.5377 91.4051 23.7184V16.002C91.4051 14.1907 90.8267 12.5312 89.8809 11.1732C89.8547 11.1353 89.8367 11.1013 89.8005 11.0714C89.4129 10.5322 88.9611 10.0529 88.4611 9.62956C88.4229 9.57564 88.3807 9.54568 88.3245 9.51173C87.9168 9.18422 87.4831 8.89865 87.0192 8.65901C87.0011 8.64104 86.975 8.63704 86.9549 8.62307C85.9428 8.11383 84.8242 7.80429 83.6314 7.80429C82.2357 7.80429 80.9444 8.22566 79.8098 8.90864L79.7475 8.92461C79.7033 8.93659 79.6832 8.97853 79.6471 9.0025C78.8117 9.5337 78.0867 10.2207 77.4943 11.0334C77.4541 11.0754 77.418 11.1073 77.3939 11.1613C77.0485 11.6545 76.7412 12.1777 76.5083 12.7469C76.5043 12.7529 76.5023 12.7589 76.4982 12.7649C76.0906 13.7594 75.8596 14.8517 75.8596 16.004C75.8596 17.0225 76.0584 17.987 76.3818 18.8877C76.3818 18.9136 76.3958 18.9336 76.4018 18.9596C76.9621 20.4773 77.9281 21.7733 79.1712 22.698C79.1812 22.7079 79.1792 22.7259 79.1912 22.7339C79.2013 22.7419 79.2153 22.7379 79.2274 22.7459C79.5989 23.0155 79.9965 23.2431 80.4102 23.4428C80.4142 23.4468 80.4142 23.4548 80.4182 23.4588C80.4323 23.4688 80.4484 23.4648 80.4624 23.4748C81.4324 23.9341 82.4987 24.2037 83.6293 24.2037C84.1856 24.2037 84.7218 24.1238 85.2439 24.006C85.2479 24.006 85.25 24.01 85.254 24.01C85.268 24.01 85.2761 23.996 85.2901 23.994C86.4448 23.7264 87.5072 23.2012 88.4088 22.4583C88.4169 22.4523 88.4229 22.4503 88.4309 22.4423C89.2463 21.7654 89.9311 20.9226 90.4371 19.9581V23.7204C90.4371 25.971 91.885 26.7718 93.2386 26.7718C95.1925 26.7718 96.4637 25.9651 97.4879 24.0759C98.9699 21.344 99.721 18.6281 99.721 16.004C99.721 7.18123 92.5036 0.00399401 83.6293 0.00399401L83.6334 0ZM87.1577 9.83924C87.3124 9.93909 87.463 10.0389 87.6096 10.1508V21.8492C87.463 21.9611 87.3124 22.0609 87.1577 22.1608V9.83924ZM86.1938 22.696C86.0492 22.7579 85.8926 22.7938 85.742 22.8457V9.15427C85.8906 9.20619 86.0472 9.24014 86.1938 9.30404V22.696ZM88.5735 11.0514C88.7362 11.2332 88.8808 11.4329 89.0254 11.6326V20.3714C88.8808 20.5711 88.7362 20.7688 88.5735 20.9526V11.0534V11.0514ZM83.055 23.1752L84.2218 21.6955C84.3844 21.4878 84.3483 21.1862 84.1394 21.0205C83.9266 20.8587 83.6273 20.8927 83.4607 21.1023L81.9706 22.9935C81.8159 22.9516 81.6673 22.8957 81.5167 22.8437L84.2218 19.4129C84.3844 19.2052 84.3483 18.9036 84.1394 18.7379C83.9266 18.5761 83.6273 18.6081 83.4607 18.8198L80.601 22.4443C80.4684 22.3724 80.3379 22.2986 80.2094 22.2187L84.2197 17.1303C84.3824 16.9226 84.3463 16.6211 84.1374 16.4553C83.9246 16.2936 83.6253 16.3275 83.4586 16.5372L79.4302 21.6495C79.3157 21.5537 79.2013 21.4558 79.0908 21.352L83.3542 15.9441C83.5169 15.7364 83.4807 15.4348 83.2719 15.2691C83.061 15.1073 82.7598 15.1393 82.5931 15.351L78.4362 20.6211C78.3398 20.4993 78.2393 20.3834 78.153 20.2556L81.0749 16.5492C81.2376 16.3415 81.2014 16.0399 80.9926 15.8742C80.7797 15.7124 80.4805 15.7464 80.3138 15.9561L77.6349 19.353C77.5606 19.2052 77.4742 19.0674 77.41 18.9136L78.7956 17.1563C78.9583 16.9486 78.9221 16.647 78.7133 16.4813C78.5024 16.3195 78.2012 16.3535 78.0345 16.5632L77.0605 17.7993C76.9441 17.32 76.8718 16.8268 76.8517 16.3155L83.9627 14.4204C84.2198 14.3525 84.3724 14.0889 84.3041 13.8313C84.2358 13.5756 83.9808 13.4259 83.7117 13.4918L76.8878 15.309C76.8999 15.1672 76.9079 15.0255 76.928 14.8857L83.9627 13.0105C84.2198 12.9426 84.3724 12.679 84.3041 12.4214C84.2358 12.1658 83.9808 12.018 83.7117 12.0819L77.169 13.8253C77.2132 13.6755 77.2473 13.5217 77.2995 13.3779L83.9627 11.6026C84.2198 11.5347 84.3724 11.2711 84.3041 11.0135C84.2358 10.7579 83.9808 10.6061 83.7117 10.674L77.8377 12.2396C77.9361 12.0699 78.0345 11.9041 78.145 11.7444L83.9627 10.1947C84.2198 10.1268 84.3724 9.8632 84.3041 9.60559C84.2358 9.34997 83.9808 9.2002 83.7117 9.2661L79.3218 10.4363C79.5889 10.2027 79.866 9.98902 80.1632 9.7993L83.9486 8.79081C84.2278 8.80479 84.5029 8.83075 84.772 8.87868V23.1073C84.3985 23.1752 84.0189 23.2312 83.6273 23.2312C83.4285 23.2312 83.2438 23.1872 83.049 23.1692L83.055 23.1752ZM89.9893 18.5302V13.4718C90.2684 14.2626 90.4411 15.1073 90.4411 16.002C90.4411 16.8967 90.2684 17.7414 89.9893 18.5322V18.5302Z" fill="white"/>
<path d="M4.53054 11.0695H-0.0742498C-0.359413 11.0695 -0.598389 10.8318 -0.598389 10.5283C-0.598389 10.2467 -0.359413 10.0071 -0.0742498 10.0071H10.1816C10.4668 10.0071 10.7057 10.2467 10.7057 10.5283C10.7057 10.8318 10.4648 11.0695 10.1816 11.0695H5.57882V24.6771C5.57882 24.9587 5.33784 25.1983 5.05468 25.1983C4.77152 25.1983 4.53054 24.9587 4.53054 24.6771V11.0695Z" fill="white"/>
<path d="M18.1763 10.5283C18.1763 10.2467 18.4152 10.0071 18.7004 10.0071H26.5585C26.8637 10.0071 27.0826 10.2467 27.0826 10.5283C27.0826 10.8318 26.8637 11.0695 26.5585 11.0695H19.2466V17.0825H25.6407C25.9259 17.0825 26.1649 17.3201 26.1649 17.6237C26.1649 17.9052 25.9239 18.1449 25.6407 18.1449H19.2466V24.1359H26.5585C26.8637 24.1359 27.0826 24.3735 27.0826 24.6771C27.0826 24.9587 26.8637 25.1983 26.5585 25.1983H18.6562C18.3952 25.1763 18.1763 24.9587 18.1763 24.6771V10.5283Z" fill="white"/>
</g>
<defs>
<clipPath id="clip0_107_469">
<rect width="137.302" height="32" fill="white"/>
</clipPath>
</defs>
</svg>
