<svg width="127" height="32" viewBox="0 0 127 32" fill="none" xmlns="http://www.w3.org/2000/svg">
<path fill-rule="evenodd" clip-rule="evenodd" d="M17.4819 4.77358L7.67297 21.7089C7.3013 22.3553 7.02658 23.1148 6.99426 23.8743C6.83267 29.2717 19.9543 31.0654 32.2034 25.9105C17.191 36.5597 -4.72151 32.1966 0.902062 20.8848L11.826 1.65476C14.0722 -2.23972 19.3564 1.54164 17.4981 4.77358H17.4819ZM27.1939 19.285C25.691 18.3639 23.6711 18.8164 22.7984 20.3515L22.0874 21.5797C21.2148 23.1148 21.6511 25.0863 23.154 26.0074C24.6568 26.9285 26.6768 26.4599 27.5494 24.9409L28.2604 23.7127C29.133 22.1776 28.6967 20.2061 27.1939 19.285ZM21.845 10.1063C20.3422 9.18518 18.3707 9.65381 17.4496 11.1728L11.3897 21.1433C10.4686 22.6624 10.9534 24.65 12.4562 25.5711C13.9591 26.4922 15.9306 26.0236 16.8517 24.5046L22.9116 14.534C23.8327 13.015 23.364 11.0274 21.845 10.1063Z" fill="white"/>
<path fill-rule="evenodd" clip-rule="evenodd" d="M50.4317 12.1427V13.791C49.6076 14.098 48.7835 14.2596 47.9916 14.2596C46.6827 14.2596 45.6162 13.8718 44.8405 13.0799C44.0648 12.2881 43.677 11.2539 43.677 9.9288C43.677 8.60371 44.0487 7.52101 44.8243 6.71303C45.5838 5.90504 46.5857 5.48489 47.83 5.48489C48.2664 5.48489 48.6542 5.51721 48.9935 5.61417C49.3329 5.69497 49.7692 5.85656 50.2702 6.0828V7.86036C49.4299 7.31093 48.638 7.05238 47.927 7.05238C47.216 7.05238 46.5696 7.31093 46.0848 7.8442C45.6 8.37747 45.3576 9.04002 45.3576 9.86416C45.3576 10.6883 45.6162 11.4155 46.1333 11.9164C46.6504 12.4174 47.3453 12.676 48.234 12.676C48.8643 12.676 49.6076 12.4982 50.4317 12.1104V12.1427ZM54.504 2.10751C54.7787 2.10751 55.0211 2.20447 55.215 2.38223C55.4089 2.55999 55.5059 2.80238 55.5059 3.0771C55.5059 3.35181 55.4089 3.57805 55.215 3.77196C55.0211 3.96588 54.7787 4.06284 54.504 4.06284C54.2454 4.06284 54.0192 3.96588 53.8253 3.7558C53.6314 3.54573 53.5344 3.31949 53.5344 3.06094C53.5344 2.80238 53.6314 2.57615 53.8253 2.38223C54.0192 2.18831 54.2454 2.0752 54.504 2.0752V2.10751ZM53.6798 5.66265H55.3443V14.098H53.6798V5.66265ZM57.8652 7.0039L60.984 3.9174V5.66265H63.6504V7.1655H60.984V11.3024C60.984 12.272 61.388 12.7567 62.1798 12.7567C62.7778 12.7567 63.408 12.5467 64.0705 12.1588V13.7263C63.4403 14.0818 62.7293 14.2758 61.9859 14.2758C61.2426 14.2758 60.5962 14.0495 60.0952 13.6132C59.9336 13.4839 59.8044 13.3385 59.6912 13.1607C59.5781 12.9991 59.4973 12.7729 59.4327 12.4982C59.3681 12.2235 59.3196 11.7064 59.3196 10.9307V7.18166H57.8652V7.02006V7.0039ZM73.7663 10.0419H67.8519C67.9004 10.8499 68.1589 11.4963 68.6599 11.9649C69.1608 12.4336 69.7911 12.676 70.5829 12.676C71.6817 12.676 72.6836 12.3366 73.6209 11.6417V13.2739C73.1038 13.6294 72.6028 13.8718 72.1019 14.0172C71.6009 14.1626 71.003 14.2434 70.3243 14.2434C69.4032 14.2434 68.6437 14.0495 68.0781 13.6617C67.5125 13.2739 67.0439 12.7567 66.7046 12.1104C66.349 11.464 66.1874 10.7045 66.1874 9.84801C66.1874 8.55523 66.543 7.50485 67.2863 6.69687C68.0135 5.88888 68.9508 5.50105 70.1142 5.50105C71.2777 5.50105 72.1181 5.88888 72.7806 6.68071C73.4431 7.47253 73.7825 8.50675 73.7825 9.83185V10.0419H73.7663ZM67.8842 9.04002H72.1181C72.0857 8.37747 71.8757 7.86036 71.5201 7.50485C71.1646 7.14934 70.696 6.95542 70.0981 6.95542C69.5002 6.95542 69.0154 7.13318 68.6276 7.50485C68.2559 7.86036 67.9973 8.37747 67.8842 9.04002ZM81.7492 5.66265H83.543L79.8262 14.2596H79.2606L75.4631 5.66265H77.2892L79.5515 10.8661L81.7331 5.66265H81.7492ZM92.8994 10.0419H86.985C87.0334 10.8499 87.292 11.4963 87.793 11.9649C88.2939 12.4336 88.9241 12.676 89.716 12.676C90.8148 12.676 91.8167 12.3366 92.754 11.6417V13.2739C92.2369 13.6294 91.7359 13.8718 91.235 14.0172C90.734 14.1626 90.1361 14.2434 89.4574 14.2434C88.5363 14.2434 87.7768 14.0495 87.2112 13.6617C86.6456 13.2739 86.177 12.7567 85.8376 12.1104C85.4821 11.464 85.3205 10.7045 85.3205 9.84801C85.3205 8.55523 85.676 7.50485 86.4194 6.69687C87.1466 5.88888 88.0838 5.50105 89.2473 5.50105C90.4108 5.50105 91.2511 5.88888 91.9137 6.68071C92.5762 7.47253 92.9156 8.50675 92.9156 9.83185V10.0419H92.8994ZM87.0334 9.04002H91.2673C91.235 8.37747 91.0249 7.86036 90.6694 7.50485C90.3139 7.14934 89.8452 6.95542 89.2473 6.95542C88.6494 6.95542 88.1646 7.13318 87.7768 7.50485C87.4051 7.86036 87.1466 8.37747 87.0334 9.04002Z" fill="white"/>
<path fill-rule="evenodd" clip-rule="evenodd" d="M44.8885 25.0546H43.6604V24.4729H46.7792V25.0546H45.5511V29.8541H44.8724V25.0546H44.8885ZM48.9123 24.4729H51.4009V25.0546H49.5748V26.7676H51.3039V27.3493H49.5748V29.2562H51.4817V29.8379H48.8961V24.4567L48.9123 24.4729ZM57.0083 29.7409C56.8467 29.7894 56.6851 29.8217 56.5074 29.8541C56.3296 29.8864 56.1842 29.8864 56.0226 29.8864C55.6024 29.8864 55.2307 29.8056 54.9237 29.6602C54.6167 29.5147 54.3743 29.3046 54.1804 29.0622C53.9864 28.8198 53.841 28.5128 53.7602 28.1735C53.6632 27.8503 53.6309 27.4948 53.6309 27.1231C53.6309 26.7029 53.6956 26.3313 53.8087 25.9919C53.9218 25.6525 54.0834 25.3778 54.2935 25.1354C54.5035 24.9092 54.7621 24.7153 55.053 24.586C55.3439 24.4567 55.667 24.3921 56.0064 24.3921C56.2003 24.3921 56.3781 24.4083 56.572 24.4406C56.7497 24.4729 56.8952 24.5214 57.0245 24.586V25.2486C56.7497 25.0708 56.4104 24.9738 56.0226 24.9738C55.7963 24.9738 55.5862 25.0062 55.3923 25.1031C55.1823 25.1839 55.0207 25.3132 54.8591 25.491C54.6975 25.6525 54.5844 25.8626 54.4874 26.1212C54.3904 26.3797 54.3581 26.6545 54.3581 26.9776C54.3581 27.3332 54.3904 27.6402 54.4712 27.9311C54.5359 28.2058 54.649 28.4482 54.7944 28.6583C54.9399 28.8683 55.1176 29.0138 55.3439 29.1269C55.5539 29.24 55.8125 29.2885 56.1034 29.2885C56.2811 29.2885 56.4427 29.2723 56.6043 29.2238C56.7659 29.1754 56.9113 29.1107 57.0568 29.0461V29.7248H57.0406L57.0083 29.7409ZM59.3353 24.4729H60.1594L62.1632 28.9168H62.1794V24.4729H62.8258V29.8541H62.0016L59.9978 25.4425H59.9817V29.8541H59.3353V24.4729ZM65.8961 27.22C65.8961 27.4948 65.9123 27.7533 65.9608 28.0119C65.9931 28.2704 66.0739 28.4967 66.1708 28.6906C66.2678 28.8845 66.3971 29.0461 66.5587 29.1592C66.7203 29.2723 66.9142 29.337 67.1243 29.337C67.302 29.337 67.4636 29.3046 67.6252 29.2238C67.7868 29.143 67.9323 29.0138 68.0454 28.8522C68.1585 28.6906 68.2554 28.4482 68.3201 28.1573C68.3847 27.8826 68.4332 27.5109 68.4332 27.1069C68.4332 26.8322 68.417 26.5737 68.3686 26.3151C68.3201 26.0565 68.2554 25.8303 68.1585 25.6364C68.0615 25.4425 67.9322 25.2809 67.7707 25.1678C67.6091 25.0546 67.4151 24.99 67.2051 24.99C67.0273 24.99 66.8496 25.0223 66.7041 25.1031C66.5425 25.1839 66.4132 25.3132 66.284 25.4748C66.1708 25.6525 66.0739 25.8788 66.0092 26.1697C65.9446 26.4444 65.8961 26.816 65.8961 27.22ZM65.1851 27.22C65.1851 26.2828 65.3629 25.5879 65.7184 25.1193C66.0739 24.6506 66.5587 24.4244 67.2051 24.4244C67.5121 24.4244 67.7707 24.4891 68.0131 24.6022C68.2554 24.7314 68.4655 24.9092 68.6271 25.1354C68.7887 25.3617 68.9342 25.6525 69.0149 25.9757C69.1119 26.2989 69.1442 26.6868 69.1442 27.1069C69.1442 28.0442 68.9665 28.739 68.611 29.2077C68.2554 29.6763 67.7707 29.9025 67.1243 29.9025C66.8172 29.9025 66.5587 29.8379 66.3163 29.7248C66.0739 29.5955 65.8638 29.4178 65.7022 29.1915C65.5406 28.9653 65.3952 28.6744 65.3144 28.3512C65.2174 28.028 65.1851 27.6402 65.1851 27.22ZM71.5035 24.4729H72.1822V29.2723H73.9437V29.8541H71.5197V24.4729H71.5035ZM76.4807 27.22C76.4807 27.4948 76.4969 27.7533 76.5454 28.0119C76.5777 28.2704 76.6585 28.4967 76.7554 28.6906C76.8524 28.8845 76.9817 29.0461 77.1433 29.1592C77.3049 29.2723 77.4988 29.337 77.7089 29.337C77.8866 29.337 78.0482 29.3046 78.2098 29.2238C78.3714 29.143 78.5168 29.0138 78.63 28.8522C78.7431 28.6906 78.84 28.4482 78.9047 28.1573C78.9693 27.8826 79.0178 27.5109 79.0178 27.1069C79.0178 26.8322 79.0016 26.5737 78.9532 26.3151C78.9208 26.0565 78.84 25.8303 78.7431 25.6364C78.6461 25.4425 78.5168 25.2809 78.3553 25.1678C78.1937 25.0546 77.9997 24.99 77.7897 24.99C77.6119 24.99 77.4342 25.0223 77.2887 25.1031C77.1271 25.1839 76.9978 25.3132 76.8686 25.4748C76.7554 25.6525 76.6585 25.8788 76.5938 26.1697C76.5292 26.4444 76.4807 26.816 76.4807 27.22ZM75.7859 27.22C75.7859 26.2828 75.9636 25.5879 76.3191 25.1193C76.6746 24.6506 77.1594 24.4244 77.8058 24.4244C78.1129 24.4244 78.3714 24.4891 78.6138 24.6022C78.8562 24.7314 79.0663 24.9092 79.2279 25.1354C79.3895 25.3617 79.5349 25.6525 79.6157 25.9757C79.7127 26.2989 79.745 26.6868 79.745 27.1069C79.745 28.0442 79.5672 28.739 79.2117 29.2077C78.8562 29.6763 78.3714 29.9025 77.725 29.9025C77.418 29.9025 77.1594 29.8379 76.917 29.7248C76.6746 29.5955 76.4646 29.4178 76.303 29.1915C76.1414 28.9653 75.9959 28.6744 75.9151 28.3512C75.8182 28.028 75.7859 27.6402 75.7859 27.22ZM85.5948 29.644C85.5948 29.644 85.4332 29.7086 85.3201 29.7409C85.207 29.7733 85.11 29.8056 84.9969 29.8217C84.8838 29.8541 84.7706 29.8702 84.6414 29.8864C84.5121 29.9025 84.399 29.9187 84.2697 29.9187C83.8495 29.9187 83.4779 29.8379 83.1708 29.6925C82.8638 29.547 82.6214 29.337 82.4275 29.0946C82.2336 28.8522 82.0881 28.5451 82.0073 28.2058C81.9104 27.8826 81.8781 27.5271 81.8781 27.1554C81.8781 26.7352 81.9427 26.3636 82.0558 26.0242C82.1689 25.6849 82.3305 25.4102 82.5406 25.1678C82.7507 24.9415 83.0092 24.7476 83.3001 24.6183C83.591 24.4891 83.9142 24.4244 84.2535 24.4244C84.4798 24.4244 84.706 24.4406 84.9161 24.4891C85.1262 24.5214 85.3201 24.586 85.514 24.6668V25.3455C85.3039 25.2324 85.0938 25.1678 84.8838 25.1031C84.6737 25.0385 84.4636 25.0223 84.2697 25.0223C84.0435 25.0223 83.8334 25.0546 83.6395 25.1516C83.4294 25.2324 83.2678 25.3617 83.1062 25.5394C82.9446 25.701 82.8315 25.9111 82.7345 26.1697C82.6376 26.4282 82.6052 26.7029 82.6052 27.0261C82.6052 27.3816 82.6376 27.6887 82.7184 27.9795C82.783 28.2543 82.8961 28.4967 83.0416 28.7067C83.187 28.9168 83.3648 29.0622 83.591 29.1754C83.8011 29.2885 84.0596 29.337 84.3505 29.337C84.4636 29.337 84.5767 29.337 84.706 29.3046C84.8353 29.2723 84.9322 29.24 85.0292 29.1915V27.4948H84.1243V26.913H85.6594V29.644H85.6433H85.5948ZM88.1642 24.4891H88.8429V29.8702H88.1642V24.4891ZM93.8362 27.8826L93.0121 25.2001H92.9959L92.1556 27.8826H93.8362ZM93.3999 24.4891L95.1452 29.8702H94.4341L94.014 28.4643H91.9779L91.5577 29.8702H90.879L92.6727 24.4891H93.3999ZM101.221 25.0708H99.9931V24.4891H103.112V25.0708H101.884V29.8702H101.205V25.0708H101.221ZM105.229 24.4891H107.717V25.0708H105.891V26.7837H107.62V27.3655H105.891V29.2723H107.798V29.8541H105.213V24.4729L105.229 24.4891ZM106.134 23.1155H106.716L107.475 24.2305H106.893L106.425 23.5356L105.956 24.2305H105.374L106.134 23.1155ZM111.24 27.0261L109.802 24.4891H110.594L111.709 26.4605L112.775 24.4891H113.519L112.016 27.0261L113.616 29.8541H112.824L111.563 27.6079L110.368 29.8541H109.608L111.24 27.01V27.0261ZM116.427 25.087H115.199V24.5052H118.318V25.087H117.09V29.8864H116.411V25.087H116.427ZM120.451 24.5052H121.13V29.8864H120.451V24.5052ZM123.683 24.5052H124.362V29.3046H126.123V29.8864H123.699V24.5052H123.683Z" fill="white"/>
<path d="M126.236 19.1714H43.6604V19.4946H126.236V19.1714Z" fill="white"/>
</svg>
