<svg width="95" height="32" viewBox="0 0 95 32" fill="none" xmlns="http://www.w3.org/2000/svg">
<path d="M51.2244 7.30226C51.2244 11.3397 47.8809 13.7685 44.3639 13.7527H41.4305V18.973H37.0776L37.125 0.772949H44.3955C47.9125 0.804492 51.2244 3.24903 51.2244 7.28648M46.8716 7.28648C46.8716 5.80398 45.7991 4.90502 44.3797 4.90502H41.4463V9.65217H44.3797C45.7991 9.65217 46.8873 8.76898 46.8873 7.28648" fill="white"/>
<path d="M59.2214 13.8006H57.0765V19.0209H52.7236L52.7709 0.820801H60.0415C63.5585 0.852343 66.8704 3.29689 66.8704 7.33433C66.8704 9.92082 65.4983 11.8607 63.59 12.9174L67.0912 19.0524H62.2179L59.2214 13.8006ZM57.0923 9.70002H60.0257C61.4451 9.70002 62.5333 8.81683 62.5333 7.33433C62.5333 5.85183 61.4609 4.95287 60.0415 4.95287H57.108V9.70002H57.0923Z" fill="white"/>
<path d="M75.6393 13.8479H73.4945V19.0682H69.1416L69.1889 0.868164H76.4595C79.9764 0.899707 83.2884 3.34425 83.2884 7.3817C83.2884 9.96818 81.9163 11.9081 80.008 12.9647L83.5092 19.0998H78.6359L75.6393 13.8479ZM73.4945 9.74739H76.4279C77.8473 9.74739 78.9355 8.8642 78.9355 7.3817C78.9355 5.8992 77.8631 5.00024 76.4437 5.00024H73.5102V9.74739H73.4945Z" fill="white"/>
<path d="M39.9332 22.5216C39.9332 23.2471 39.3812 23.6414 38.7346 23.6414H38.1195V24.6823H37.5518V21.4019H38.7346C39.3654 21.4019 39.9174 21.8119 39.9174 22.5216M39.3812 22.5216C39.3812 22.1273 39.1131 21.9381 38.7661 21.9381H38.1511V23.1052H38.7661C39.1289 23.1052 39.3812 22.9001 39.397 22.5216" fill="white"/>
<path d="M40.6191 21.2161L40.6094 24.6858L41.1771 24.6874L41.1868 21.2177L40.6191 21.2161Z" fill="white"/>
<path d="M43.2133 22.3013C43.6076 22.3013 43.923 22.5221 44.0492 22.7902L44.0807 22.3486H44.617V24.6827H44.0807L44.0492 24.2411C43.923 24.5093 43.6076 24.73 43.2133 24.73C42.5509 24.73 42.062 24.1781 42.062 23.5157C42.062 22.8533 42.5509 22.3013 43.2291 22.3013M43.3237 24.1938C43.718 24.1938 44.0019 23.8784 44.0019 23.5157C44.0019 23.1529 43.718 22.8375 43.3237 22.8375C42.9294 22.8375 42.6298 23.1529 42.6298 23.5157C42.6298 23.8784 42.9137 24.1938 43.3237 24.1938Z" fill="white"/>
<path d="M47.8498 23.3266V24.7145H47.2821V23.5947C47.2821 23.0427 47.0928 22.8692 46.7774 22.8692C46.3831 22.8692 46.1465 23.1689 46.1308 23.5474V24.7145H45.563V22.3803H46.0992L46.1308 22.7273C46.3516 22.5065 46.6512 22.333 46.9982 22.333C47.5659 22.333 47.8498 22.6957 47.8498 23.3424" fill="white"/>
<path d="M48.6539 23.5318C48.6539 22.8536 49.1901 22.3174 49.9156 22.3174C50.6411 22.3174 51.1615 22.8694 51.1458 23.5318C51.13 24.1942 50.6253 24.7462 49.8998 24.7462C49.1744 24.7462 48.6381 24.1942 48.6539 23.5318ZM50.5938 23.5318C50.5938 23.169 50.3099 22.8536 49.9156 22.8536C49.5213 22.8536 49.2217 23.169 49.2217 23.5318C49.2217 23.8945 49.5055 24.2099 49.9156 24.2099C50.3257 24.2099 50.5938 23.8945 50.5938 23.5318Z" fill="white"/>
<path d="M55.0732 22.3332C55.4675 22.3332 55.7829 22.554 55.9091 22.8221V21.2607H56.4926V24.7304H55.9406L55.9091 24.2888C55.7829 24.5569 55.4675 24.7777 55.0732 24.7777C54.4108 24.7777 53.9219 24.2257 53.9219 23.5633C53.9219 22.901 54.4108 22.349 55.0889 22.349M55.1678 24.2257C55.5621 24.2257 55.846 23.9103 55.846 23.5476C55.846 23.1848 55.5621 22.8694 55.1678 22.8694C54.7735 22.8694 54.4739 23.1848 54.4739 23.5476C54.4739 23.9103 54.7578 24.2257 55.1678 24.2257Z" fill="white"/>
<path d="M59.7095 23.7522H57.9431C57.9431 24.0361 58.1639 24.2884 58.5897 24.2884C58.8894 24.2884 59.0786 24.1307 59.1733 23.973L59.6779 24.0361C59.6149 24.3515 59.2364 24.8089 58.5897 24.8089C57.88 24.8089 57.3911 24.2569 57.3911 23.5787C57.3911 22.9006 57.8485 22.3801 58.5582 22.3801C59.2679 22.3801 59.7253 22.9637 59.7253 23.6261V23.7838L59.7095 23.7522ZM57.9431 23.3422H59.1417C59.1259 23.0898 58.8894 22.8533 58.5424 22.8533C58.1954 22.8533 57.9589 23.0741 57.9431 23.3422Z" fill="white"/>
<path d="M63.5424 23.7211H62.9589V24.7462H62.3911V21.4658H63.6213C64.2206 21.4658 64.7568 21.9074 64.7568 22.6014C64.7568 23.106 64.4729 23.4688 64.0944 23.6265L64.7883 24.762H64.1417L63.5266 23.7369L63.5424 23.7211ZM62.9589 23.1849H63.6213C63.9367 23.1849 64.2048 22.9641 64.2048 22.6014C64.2048 22.2386 63.9367 22.002 63.6213 22.002H62.9589V23.1691V23.1849Z" fill="white"/>
<path d="M67.7849 23.7676H66.0185C66.0185 24.0515 66.2393 24.3038 66.6652 24.3038C66.9648 24.3038 67.1541 24.1461 67.2487 23.9884L67.7534 24.0515C67.6903 24.3669 67.3118 24.8243 66.6652 24.8243C65.9555 24.8243 65.4666 24.2723 65.4666 23.5941C65.4666 22.916 65.9239 22.3955 66.6336 22.3955C67.3433 22.3955 67.8007 22.979 67.8007 23.6414V23.7992L67.7849 23.7676ZM66.0185 23.3733H67.2172C67.2014 23.121 66.9648 22.8844 66.6179 22.8844C66.2709 22.8844 66.0343 23.1052 66.0185 23.3733Z" fill="white"/>
<path d="M69.8509 22.9164C69.5039 22.9164 69.1569 23.1845 69.1569 23.5945C69.1569 24.0046 69.5039 24.2727 69.8509 24.2727C70.0717 24.2727 70.2609 24.1938 70.4502 24.0203V24.5723C70.2924 24.7143 70.0559 24.8089 69.7562 24.8089C69.0623 24.8089 68.5576 24.2569 68.5576 23.5945C68.5576 22.9321 69.0623 22.3801 69.7562 22.3801C70.0559 22.3801 70.2924 22.4905 70.4502 22.6325V23.1687C70.2609 22.9952 70.0717 22.9164 69.8509 22.9164Z" fill="white"/>
<path d="M73.6198 22.4428V24.7769H73.0836L73.0521 24.43C72.8313 24.6508 72.5316 24.8242 72.1847 24.8242C71.6169 24.8242 71.333 24.4615 71.333 23.8149V22.427H71.9008V23.5468C71.9008 24.0988 72.09 24.2722 72.4055 24.2722C72.8155 24.2722 73.0521 23.9568 73.0521 23.5625V22.427H73.6198V22.4428Z" fill="white"/>
<path d="M74.5509 22.4428H75.0872L75.1187 22.8844C75.2449 22.6163 75.5603 22.3955 75.9546 22.3955C76.617 22.3955 77.1216 22.9475 77.1216 23.6099C77.1216 24.2723 76.617 24.8243 75.9546 24.8243C75.5603 24.8243 75.2449 24.6035 75.1187 24.3354V25.8336H74.5352V22.427L74.5509 22.4428ZM75.8757 24.2881C76.27 24.2881 76.5539 23.9726 76.5539 23.6099C76.5539 23.2472 76.27 22.9317 75.8757 22.9317C75.4814 22.9317 75.1976 23.2472 75.1976 23.6099C75.1976 23.9726 75.4657 24.2881 75.8757 24.2881Z" fill="white"/>
<path d="M80.1817 23.7991H78.4153C78.4153 24.083 78.6361 24.3353 79.0619 24.3353C79.3616 24.3353 79.5508 24.1776 79.6454 24.0199L80.1501 24.083C80.087 24.3984 79.7085 24.8558 79.0619 24.8558C78.3522 24.8558 77.8633 24.3038 77.8633 23.6256C77.8633 22.9475 78.3206 22.427 79.0304 22.427C79.7401 22.427 80.1974 23.0105 80.1974 23.6729V23.8306L80.1817 23.7991ZM78.4153 23.4048H79.6139C79.5981 23.1525 79.3615 22.9159 79.0146 22.9159C78.6676 22.9159 78.431 23.1367 78.4153 23.4048Z" fill="white"/>
<path d="M82.3579 22.5218L82.279 23.0107C82.279 23.0107 82.1371 22.9476 82.0582 22.9476C81.7586 22.9476 81.5851 23.263 81.5851 23.7519V24.7928H81.0173V22.4587H81.5536V22.711C81.727 22.5375 81.9005 22.4114 82.0898 22.4114C82.2159 22.4114 82.3106 22.4587 82.3737 22.5218" fill="white"/>
<path d="M84.0927 22.427C84.487 22.427 84.8024 22.6478 84.9286 22.9159L84.9601 22.4743H85.4963V24.8085H84.9601L84.9286 24.3669C84.8024 24.635 84.487 24.8558 84.0927 24.8558C83.4303 24.8558 82.9414 24.3038 82.9414 23.6414C82.9414 22.979 83.4303 22.427 84.1085 22.427M84.1873 24.3196C84.5816 24.3196 84.8655 24.0041 84.8655 23.6414C84.8655 23.2787 84.5816 22.9632 84.1873 22.9632C83.7931 22.9632 83.4934 23.2787 83.4934 23.6414C83.4934 24.0041 83.7773 24.3196 84.1873 24.3196Z" fill="white"/>
<path d="M86.8684 23.6414C86.8684 24.0514 87.2154 24.3196 87.5623 24.3196C87.7831 24.3196 87.9724 24.2407 88.1616 24.0672V24.6192C88.0355 24.7454 87.8462 24.8242 87.6096 24.8558L87.4992 25.045C87.7831 25.045 87.9724 25.1554 87.9724 25.3762C87.9724 25.8178 87.2154 25.7863 86.9788 25.7863L87.0892 25.5339C87.4046 25.5339 87.6727 25.5339 87.6727 25.3762C87.6727 25.2658 87.5466 25.2501 87.4046 25.2501H87.0892L87.2627 24.84C86.7107 24.7296 86.3164 24.2249 86.3164 23.6414C86.3164 22.9948 86.8211 22.427 87.515 22.427C87.8147 22.427 88.0512 22.5374 88.209 22.6793V23.2156C88.0197 23.0421 87.8304 22.9632 87.6096 22.9632C87.2627 22.9632 86.9157 23.2313 86.9157 23.6414" fill="white"/>
<path d="M90.0854 22.4436C90.4797 22.4436 90.7951 22.6644 90.9213 22.9325L90.9528 22.4909H91.489V24.8251H90.9528L90.9213 24.3835C90.7951 24.6516 90.4797 24.8724 90.0854 24.8724C89.423 24.8724 88.9341 24.3204 88.9341 23.658C88.9341 22.9956 89.423 22.4436 90.1012 22.4436M89.77 21.2607C90.1169 21.2607 90.2589 21.5762 90.527 21.5762C90.6847 21.5762 90.7793 21.4973 90.7793 21.3238L91.2525 21.4185C91.2209 21.7339 91.0474 22.0178 90.6531 22.0178C90.3062 22.0178 90.1642 21.7023 89.8961 21.7023C89.7384 21.7023 89.6438 21.797 89.6438 21.9547L89.1707 21.86C89.2022 21.5446 89.3757 21.2607 89.77 21.2607ZM90.1958 24.3361C90.5901 24.3361 90.8739 24.0207 90.8739 23.658C90.8739 23.2952 90.5901 22.9798 90.1958 22.9798C89.8015 22.9798 89.5018 23.2952 89.5018 23.658C89.5018 24.0207 89.7857 24.3361 90.1958 24.3361Z" fill="white"/>
<path d="M92.2933 23.658C92.2933 22.9798 92.8295 22.4436 93.555 22.4436C94.2805 22.4436 94.8009 22.9956 94.7852 23.658C94.7694 24.3204 94.2647 24.8724 93.5392 24.8724C92.8138 24.8724 92.2775 24.3204 92.2933 23.658ZM94.2332 23.658C94.2332 23.2952 93.9493 22.9798 93.555 22.9798C93.1607 22.9798 92.8611 23.2952 92.8611 23.658C92.8611 24.0207 93.145 24.3362 93.555 24.3362C93.9651 24.3362 94.2332 24.0207 94.2332 23.658Z" fill="white"/>
<path d="M39.9641 29.0987H38.1977C38.1977 29.3826 38.4185 29.6349 38.8444 29.6349C39.144 29.6349 39.3333 29.4772 39.4279 29.3195L39.9326 29.3826C39.8695 29.698 39.491 30.1553 38.8444 30.1553C38.1347 30.1553 37.6458 29.6033 37.6458 28.9252C37.6458 28.247 38.1031 27.7266 38.8128 27.7266C39.5225 27.7266 39.9799 28.3101 39.9799 28.9725V29.1302L39.9641 29.0987ZM38.1977 28.7044H39.3964C39.3806 28.452 39.144 28.2155 38.7971 28.2155C38.4501 28.2155 38.2135 28.4363 38.1977 28.7044Z" fill="white"/>
<path d="M43.7812 29.0829H43.1976V30.1081H42.6299V26.8276H43.86C44.4593 26.8276 44.9956 27.2692 44.9956 27.9632C44.9956 28.4679 44.7117 28.8306 44.3332 28.9883L45.0271 30.1238H44.3805L43.7654 29.0987L43.7812 29.0829ZM43.2134 28.5309H43.8758C44.1912 28.5309 44.4593 28.3101 44.4593 27.9474C44.4593 27.5847 44.1912 27.3481 43.8758 27.3481H43.2134V28.5152V28.5309Z" fill="white"/>
<path d="M48.0232 29.1299H46.2568C46.2568 29.4138 46.4776 29.6661 46.9034 29.6661C47.2031 29.6661 47.3924 29.5084 47.487 29.3507L47.9917 29.4138C47.9286 29.7292 47.5501 30.1866 46.9034 30.1866C46.1937 30.1866 45.7048 29.6346 45.7048 28.9564C45.7048 28.2783 46.1622 27.7578 46.8719 27.7578C47.5816 27.7578 48.039 28.3413 48.039 29.0037V29.1615L48.0232 29.1299ZM46.2568 28.7199H47.4554C47.4397 28.4675 47.2031 28.2309 46.8561 28.2309C46.5092 28.2309 46.2726 28.4517 46.2568 28.7199Z" fill="white"/>
<path d="M49.3164 29.4141C49.3479 29.5876 49.5214 29.6822 49.8053 29.6822C49.9946 29.6822 50.168 29.6191 50.168 29.4772C50.168 29.2879 49.9946 29.2564 49.5214 29.0987C49.1271 28.9725 48.8275 28.7832 48.8275 28.4047C48.8275 27.9947 49.2533 27.7266 49.6949 27.7266C50.2784 27.7266 50.6254 28.042 50.6254 28.452H50.0576C50.0576 28.2786 49.8526 28.1997 49.7107 28.1997C49.5687 28.1997 49.3953 28.2628 49.3953 28.4047C49.3953 28.5624 49.5687 28.5782 50.0576 28.7517C50.5781 28.9252 50.7516 29.1933 50.7516 29.4772C50.7516 29.9188 50.3258 30.1553 49.8053 30.1553C49.206 30.1553 48.7959 29.903 48.7644 29.3983H49.3322H49.3164V29.4141Z" fill="white"/>
<path d="M51.5561 27.159C51.5561 27.0013 51.6822 26.8594 51.8557 26.8594C52.0292 26.8594 52.1554 26.9855 52.1554 27.159C52.1554 27.3325 52.0292 27.4587 51.8557 27.4587C51.6822 27.4587 51.5561 27.3325 51.5561 27.159ZM52.108 30.124H51.5403V27.7899H52.108V30.124Z" fill="white"/>
<path d="M53.0812 26.657L53.0715 30.1267L53.6393 30.1283L53.649 26.6586L53.0812 26.657Z" fill="white"/>
<path d="M54.5842 27.1742C54.5842 27.0165 54.7104 26.8745 54.8839 26.8745C55.0574 26.8745 55.1835 27.0007 55.1835 27.1742C55.1835 27.3477 55.0574 27.4738 54.8839 27.4738C54.7104 27.4738 54.5842 27.3477 54.5842 27.1742ZM55.152 30.1392H54.5842V27.805H55.152V30.1392Z" fill="white"/>
<path d="M58.3696 29.1456H56.6033C56.6033 29.4295 56.8241 29.6818 57.2499 29.6818C57.5495 29.6818 57.7388 29.5241 57.8334 29.3664L58.3381 29.4295C58.275 29.7449 57.8965 30.2023 57.2499 30.2023C56.5402 30.2023 56.0513 29.6503 56.0513 28.9721C56.0513 28.294 56.5086 27.7735 57.2183 27.7735C57.928 27.7735 58.3854 28.3571 58.3854 29.0194V29.1772L58.3696 29.1456ZM56.9502 27.3319H56.4456L56.9975 26.6064H57.4234L57.9754 27.3319H57.4707L57.2183 26.9219L56.9502 27.3319ZM56.6033 28.7513H57.8019C57.7861 28.499 57.5495 28.2624 57.2026 28.2624C56.8556 28.2624 56.619 28.4832 56.6033 28.7513Z" fill="white"/>
<path d="M61.4917 28.7675V30.1554H60.9239V29.0356C60.9239 28.4836 60.7346 28.3102 60.4192 28.3102C60.0249 28.3102 59.7884 28.6098 59.7726 28.9883V30.1554H59.2048V27.8212H59.7411L59.7726 28.1682C59.9934 27.9474 60.293 27.7739 60.64 27.7739C61.2078 27.7739 61.4917 28.1367 61.4917 28.7833" fill="white"/>
<path d="M63.5901 28.3102C63.2431 28.3102 62.8962 28.5783 62.8962 28.9883C62.8962 29.3984 63.2431 29.6665 63.5901 29.6665C63.8109 29.6665 64.0002 29.5876 64.1894 29.4141V29.9661C64.0317 30.1081 63.7951 30.2027 63.4955 30.2027C62.8016 30.2027 62.2969 29.6507 62.2969 28.9883C62.2969 28.3259 62.8016 27.7739 63.4955 27.7739C63.7951 27.7739 64.0317 27.8843 64.1894 28.0263V28.5625C64.0002 28.389 63.8109 28.3102 63.5901 28.3102Z" fill="white"/>
<path d="M65.009 27.2059C65.009 27.0482 65.1352 26.9062 65.3087 26.9062C65.4822 26.9062 65.6083 27.0324 65.6083 27.2059C65.6083 27.3794 65.4822 27.5056 65.3087 27.5056C65.1352 27.5056 65.009 27.3794 65.009 27.2059ZM65.5768 30.1709H65.009V27.8367H65.5768V30.1709Z" fill="white"/>
<path d="M67.6274 27.7891C68.0217 27.7891 68.3371 28.0099 68.4632 28.278L68.4948 27.8364H69.031V30.1705H68.4948L68.4632 29.7289C68.3371 29.997 68.0217 30.2178 67.6274 30.2178C66.965 30.2178 66.4761 29.6658 66.4761 29.0034C66.4761 28.3411 66.965 27.7891 67.6431 27.7891M67.7378 29.6816C68.1321 29.6816 68.4159 29.3662 68.4159 29.0034C68.4159 28.6407 68.1321 28.3253 67.7378 28.3253C67.3435 28.3253 67.0438 28.6407 67.0438 29.0034C67.0438 29.3662 67.3277 29.6816 67.7378 29.6816Z" fill="white"/>
<path d="M5.72463 8.10713C6.46588 6.73503 9.24162 2.5241 15.7078 2.0825C14.9193 1.34125 13.9572 0.899658 12.6482 0.899658C12.1435 0.899658 11.5758 0.899658 10.9607 1.01006C10.3456 1.12046 9.73053 1.29395 9.16276 1.56206C8.83157 1.71977 8.51614 1.87749 8.18495 2.06674C8.09032 2.12983 7.99569 2.1929 7.88529 2.25599C5.59846 4.06969 5.28304 6.07264 5.70886 8.1229L5.72463 8.10713Z" fill="white"/>
<path d="M5.97757 6.86091C5.91448 5.14185 6.60842 3.76974 8.154 2.55535L8.35903 2.42918C8.70599 2.22415 9.02142 2.06644 9.33684 1.9245C9.88883 1.67216 10.4566 1.4829 11.0244 1.41982C11.6237 1.34096 12.1757 1.3252 12.633 1.3252C13.3743 1.3252 14.0051 1.48291 14.5729 1.78256C9.80998 2.46073 7.19195 5.18915 5.99334 6.89245L5.97757 6.86091Z" fill="white"/>
<path d="M31.2431 18.4682C31.0854 17.3011 30.6911 16.2129 30.0761 15.2508C29.9184 14.9985 29.7291 14.7619 29.5241 14.5569C28.3885 13.2952 26.6695 12.5224 25.1554 11.8285C24.7927 11.6707 24.43 11.4973 24.083 11.3395C22.3166 10.4879 20.5502 9.41546 19.6355 7.34942C19.4463 6.92359 19.2728 6.51354 19.0835 6.10349C18.5 4.74716 17.948 3.48545 17.2856 2.42878C16.7652 1.60867 15.9924 0.599315 14.7622 0.0315493C15.1565 6.73892e-06 15.5035 0 15.8031 0C16.5128 0 17.0017 0.0630899 17.1437 0.0788612C17.1594 0.0788612 17.191 0.0788612 17.2067 0.0788612C25.3605 0.835882 31.4797 7.61753 31.4639 15.8344C31.4639 16.7176 31.3851 17.6007 31.2431 18.4524V18.4682Z" fill="white"/>
<path d="M7.99601 29.5548C3.09116 26.8106 0 21.5904 0 15.755C0 12.3326 1.08821 9.08374 3.1227 6.35531C3.58007 5.756 4.06898 5.17245 4.62097 4.63623C4.40017 5.34594 4.32132 6.08719 4.36863 6.7969C4.47903 8.43711 5.14142 10.1246 5.74073 11.5914L6.02461 12.3011C6.38735 13.2631 6.81317 14.3671 7.00243 15.4869C7.16014 16.4174 7.11282 17.3952 7.06551 18.1364C7.00243 18.925 6.9078 19.7136 6.82894 20.4864L6.75009 21.2118C6.48198 23.5933 6.29272 26.1009 7.19168 28.1827C7.31785 28.4824 7.58596 28.9871 8.02756 29.5548H7.99601Z" fill="white"/>
<path d="M24.7287 28.4043C23.5459 28.4043 22.4419 27.6631 21.3694 26.1491C20.7071 25.2185 20.1393 24.1934 19.5873 23.1841C19.4454 22.9317 19.3034 22.6794 19.1615 22.4113C18.231 20.7395 16.8116 18.2319 14.919 17.5222C14.4143 17.3329 13.8308 17.2383 13.1369 17.2383C11.6386 17.2383 10.0299 17.6483 8.50012 18.0742C8.34241 18.1215 8.18469 18.153 8.04275 18.2003C7.97967 18.9889 7.88504 19.809 7.79041 20.5976C7.42768 23.673 7.06494 26.8588 8.83132 29.051C10.1088 30.6281 12.5691 31.6848 15.9126 32.0002C20.0447 31.9686 23.7982 30.36 26.637 27.7735C26.0062 28.1835 25.3753 28.4043 24.7445 28.4043H24.7287Z" fill="white"/>
<path d="M15.9133 31.574C12.759 31.2743 10.3618 30.2807 9.14741 28.7825C7.49143 26.7322 7.8384 23.6253 8.20114 20.6445C8.27999 19.9348 8.37462 19.2093 8.42194 18.5154L8.5481 18.4838C10.1095 18.058 11.6866 17.6479 13.1375 17.6479C13.7684 17.6479 14.3204 17.7268 14.7777 17.9003C16.5283 18.5627 17.9004 20.9915 18.8152 22.6001L19.241 23.3729C19.793 24.3823 20.3765 25.4232 21.0547 26.3695C22.1902 27.9624 23.3573 28.7509 24.6348 28.7982C22.0798 30.5488 19.0517 31.5109 15.929 31.5582H15.9133V31.574Z" fill="white"/>
<path d="M24.8241 27.505C23.5624 27.505 22.4899 26.2118 21.3386 24.2403C24.9187 22.3793 27.3475 18.8623 27.8206 14.8564C28.278 15.2192 28.6407 15.5977 28.9246 16.0235C30.7541 18.8308 30.3282 22.4582 27.7575 25.7702L27.5367 26.054C26.5431 26.9846 25.5969 27.505 24.8398 27.505H24.8241Z" fill="white"/>
</svg>
